<?xml version="1.0" encoding="UTF-8" standalone="no"?>
<!-- Generator: Adobe Illustrator 21.0.0, SVG Export Plug-In . SVG Version: 6.00 Build 0)  -->

<svg
   version="1.1"
   id="Слой_1"
   x="0px"
   y="0px"
   viewBox="0 0 281.8 273.8"
   style="enable-background:new 0 0 281.8 273.8;"
   xml:space="preserve"
   sodipodi:docname="logo2.svg"
   inkscape:version="1.3.2 (1:1.3.2+202311252150+091e20ef0f)"
   xmlns:inkscape="http://www.inkscape.org/namespaces/inkscape"
   xmlns:sodipodi="http://sodipodi.sourceforge.net/DTD/sodipodi-0.dtd"
   xmlns="http://www.w3.org/2000/svg"
   xmlns:svg="http://www.w3.org/2000/svg"><defs
   id="defs9" /><sodipodi:namedview
   id="namedview9"
   pagecolor="#ffffff"
   bordercolor="#000000"
   borderopacity="0.25"
   inkscape:showpageshadow="2"
   inkscape:pageopacity="0.0"
   inkscape:pagecheckerboard="0"
   inkscape:deskcolor="#d1d1d1"
   inkscape:zoom="2.0944617"
   inkscape:cx="153.50006"
   inkscape:cy="107.18744"
   inkscape:window-width="1920"
   inkscape:window-height="1008"
   inkscape:window-x="1920"
   inkscape:window-y="304"
   inkscape:window-maximized="1"
   inkscape:current-layer="g9" />
<g
   id="g9"
   inkscape:label="Caffeine">
	<rect
   x="186.7"
   y="121.6"
   width="2.4"
   height="45.6"
   id="rect1"
   style="stroke-width:4;stroke-dasharray:none;stroke:#000000;stroke-opacity:1"
   inkscape:label="double_bound_1" />
	<rect
   x="43.4"
   y="77.2"
   transform="matrix(0.5004 -0.8658 0.8658 0.5004 -61.2454 86.7775)"
   width="2.4"
   height="38.5"
   id="rect2"
   style="stroke-width:3.9999804;stroke-dasharray:none;stroke:#000000;stroke-opacity:1"
   inkscape:label="Meth- -1" />
	<rect
   x="126.5"
   y="222.3"
   width="2.4"
   height="37.4"
   id="rect3"
   style="stroke-width:4;stroke-dasharray:none;stroke:#000000;stroke-opacity:1"
   inkscape:label="Meth- -3" />
	<polygon
   points="267.1,145.1 267.7,144.4 267.1,143.7 267.1,143.7 266.5,142.8 266,142.1 266,142.1 247.1,116.1 245.2,117.5    264,143.5 264,143.5 264.4,144 264.7,144.4 245.9,170.3 247.8,171.7 266,146.7 266,146.7 266,146.6 267.1,145.1  "
   id="polygon3"
   style="stroke-width:4;stroke-dasharray:none;stroke:#000000;stroke-opacity:1"
   inkscape:label="penta-2" />
	<rect
   x="232.9"
   y="152.9"
   transform="matrix(0.5876 -0.8091 0.8091 0.5876 -23.0624 262.8658)"
   width="26.9"
   height="2.4"
   id="rect4"
   style="stroke-width:4.00016687;stroke-dasharray:none;stroke:#000000;stroke-opacity:1"
   inkscape:label="double_bound_2" />
	<path
   id="polygon4"
   style="stroke:#000000;stroke-width:4;stroke-dasharray:none;stroke-opacity:1"
   inkscape:label="Hex-penta-1"
   d="m 121.30078,89.099609 -27.601561,16.000001 1.201172,2 L 126.5,88.900391 l 1.19922,-0.701172 1.10156,0.701172 v -0.09961 l 47.5,27.499999 V 172.5 l -32.70117,19 1.20117,2 32.89844,-19 37.20117,12.09961 0.69922,-2.29883 -36.90039,-12 V 116.5 l 36.90039,-12 -0.69922,-2.30078 -37.20117,12.10156 L 134,89.099609 131.69922,87.699219 128.5,85.900391 l -0.80078,-0.5 -0.89844,0.5 -3.10156,1.798828 z"
   sodipodi:nodetypes="cccccccccccccccccccccccccc" />
	<rect
   x="226.8"
   y="58.8"
   transform="matrix(0.3094 -0.9509 0.9509 0.3094 111.8973 274.0325)"
   width="35.7"
   height="2.4"
   id="rect5"
   style="stroke-width:4.00012167;stroke-dasharray:none;stroke:#000000;stroke-opacity:1"
   inkscape:label="Meth- -2" />
	<polygon
   points="70.4,107.1 70.5,107.1 84.9,129.5 88.7,129.5 88.7,100.8 85.1,100.8 85.1,123.1 85.1,123.1 70.7,100.8 66.8,100.8    66.8,129.5 70.4,129.5  "
   id="polygon5"
   inkscape:label="N-1" />

	<path
   d="m 76.302636,166.65084 -34,19.59961 1.30078,2.09961 32.69922,-18.89844 v 1.89844 2 0.70117 l 2.30078,1.40039 1.69922,0.89844 -32.79883,18.90039 1.19922,2.09961 34,-19.59961 -4,-5.09961 v -1.30078 z"
   style="display:inline;stroke:#000000;stroke-width:4"
   id="path13-6"
   sodipodi:nodetypes="ccccccccccccccc"
   inkscape:label="double-bound-O-2" />
   
   <path
   d="m 134.55444,89.393273 -0.57498,-39.240469 -2.46724,0.114515 0.5955,37.762884 -1.65845,-0.923922 -1.74716,-0.973348 -0.61253,-0.341242 -2.34309,1.328391 -1.61183,1.047163 -0.54873,-37.85085 -2.41781,0.02579 0.57498,39.240464 6.40163,-1.012487 1.13634,0.633056 z"
   style="display:inline;stroke:#000000"
   stroke-width="4"
   id="path13-6-5"
   sodipodi:nodetypes="ccccccccccccccc"
   inkscape:label="double-bound-O-1"
   height="100"
   fill-opacity="0">
   <animate
      attributeName="fill-opacity"
      values="0;100;0"
      dur="5s"
      repeatCount="indefinite" />
   </path>
   
   
   <path
   id="polygon6-3"
   style="display:inline;stroke:#000000;stroke-width:4;stroke-dasharray:none;stroke-opacity:1"
   inkscape:label="Hex-2"
   d="m 76.546812,135.66639 v 30.59961 2.80078 1.90039 2 0.69922 l 2.300781,1.40039 1.699219,0.90039 2.400391,1.39844 27.500007,15.90039 1.19922,-2 -32.699227,-19 v -1.29883 -35.30078 z"
   sodipodi:nodetypes="ccccccccccccccc"
   sodipodi:insensitive="true" />
	<polygon
   points="135.1,209.5 135,209.5 120.6,187.2 116.7,187.2 116.7,215.9 120.3,215.9 120.3,193.5 120.3,193.5 134.7,215.9    138.6,215.9 138.6,187.2 135.1,187.2  "
   id="polygon7"
   inkscape:label="N-3" />
	<path
   d="M34.9,188.8c-3.1-1.8-7-1.8-7-1.8c-3.9,0-7,1.8-7,1.8c-3.2,1.8-4.9,5.2-4.9,5.2c-1.8,3.4-1.8,7.8-1.8,7.8   c0,4.3,1.8,7.7,1.8,7.7c1.8,3.4,4.9,5.2,4.9,5.2c3.1,1.8,7.1,1.8,7.1,1.8c3.9,0,7-1.8,7-1.8c3.1-1.8,4.9-5.2,4.9-5.2   c1.8-3.4,1.8-7.8,1.8-7.8c0-4.5-1.8-7.8-1.8-7.8C38.1,190.6,34.9,188.8,34.9,188.8z M36.4,208c-1.2,2.6-3.5,4-3.5,4   c-2.2,1.4-5,1.4-5,1.4c-2.8,0-5.1-1.4-5.1-1.4c-2.2-1.4-3.4-4-3.4-4c-1.3-2.6-1.3-6.1-1.3-6.1c0-3.6,1.2-6.3,1.2-6.3   c1.2-2.6,3.4-4,3.4-4c2.2-1.4,5.1-1.4,5.1-1.4c2.9,0,5.1,1.4,5.1,1.4c2.2,1.4,3.4,4,3.4,4c1.2,2.6,1.2,6.2,1.2,6.2   C37.7,205.4,36.4,208,36.4,208z"
   id="path7"
   inkscape:label="O-2" />
	<path
   d="M120.6,41.9c3.2,1.8,7.1,1.8,7.1,1.8c3.9,0,7-1.8,7-1.8c3.1-1.8,4.9-5.2,4.9-5.2c1.8-3.4,1.8-7.8,1.8-7.8   c0-4.5-1.8-7.8-1.8-7.8c-1.8-3.3-4.9-5.2-4.9-5.2c-3.1-1.8-7-1.8-7-1.8c-3.9,0-7,1.8-7,1.8c-3.2,1.8-4.9,5.2-4.9,5.2   c-1.8,3.4-1.8,7.8-1.8,7.8c0,4.3,1.8,7.7,1.8,7.7C117.5,40.1,120.6,41.9,120.6,41.9z M119.1,22.8c1.2-2.6,3.5-4,3.5-4   c2.2-1.4,5.1-1.4,5.1-1.4c2.9,0,5.1,1.4,5.1,1.4c2.2,1.4,3.5,4,3.5,4c1.2,2.6,1.2,6.2,1.2,6.2c0,3.6-1.2,6.2-1.2,6.2   c-1.2,2.6-3.5,4-3.5,4c-2.2,1.4-5,1.4-5,1.4c-2.8,0-5-1.4-5-1.4c-2.2-1.4-3.5-4-3.5-4c-1.2-2.6-1.2-6.1-1.2-6.1   C117.9,25.5,119.1,22.8,119.1,22.8z"
   id="path8"
   inkscape:label="O-1" />
	<polygon
   points="239.7,198.5 239.6,198.5 225.3,176.2 221.3,176.2 221.3,204.9 224.9,204.9 224.9,182.5 225,182.5 239.4,204.9    243.3,204.9 243.3,176.2 239.7,176.2  "
   id="polygon8"
   inkscape:label="N-4" />
	<polygon
   points="224.9,89.3 225,89.3 239.4,111.7 243.3,111.7 243.3,83 239.7,83 239.7,105.3 239.6,105.3 225.3,83 221.3,83    221.3,111.7 224.9,111.7  "
   id="polygon9"
   inkscape:label="N-2" />
</g>
</svg>
